<svg version="1.1" id="Layer_1" xmlns="http://www.w3.org/2000/svg" xmlns:xlink="http://www.w3.org/1999/xlink" x="0px" y="0px"
	 width="33.9px" height="43.7px" viewBox="0 0 33.9 43.7" style="enable-background:new 0 0 33.9 43.7;" xml:space="preserve">
<style type="text/css">
	.st0{fill:#FFFFFF;}
</style>
<g>
	<path class="st0" d="M29.5,24.2c0-4.2,0-8.4,0-12.6c0-2.2-1-3.2-3.1-3.3c-0.9,0-1-0.5-1-1.2c0-0.7,0.1-1.2,1-1.2
		c3.1-0.1,5.5,2.3,5.5,5.6c0,7.7,0,15.5,0,23.2c0,1.1,0,2.3-0.1,3.4c-0.3,2.4-2.2,4.1-4.6,4.3c-0.5,0.1-1,0.1-1.5,0.1
		c-5.9,0-11.8,0-17.7,0c-0.7,0-1.4,0-2-0.2c-2.4-0.6-4-2.6-4-5.1c0-8.7,0-17.3,0-26c0-3.1,2.4-5.4,5.5-5.4c0.7,0,1,0.3,1,1
		c0,1.2-0.1,1.4-1,1.4c-0.1,0-0.3,0-0.4,0c-1.6,0.1-2.7,1.2-2.7,2.8c0,8.7,0,17.5,0,26.2c0,1.7,1.1,2.8,2.8,2.8c6.4,0,12.9,0,19.3,0
		c1.8,0,2.9-1.1,2.9-2.9C29.5,32.9,29.5,28.5,29.5,24.2C29.5,24.2,29.5,24.2,29.5,24.2z"/>
	<path class="st0" d="M16.9,9.1c-1.8,0-3.5,0-5.3,0c-1,0-1.2-0.2-1.2-1.2c0-1,0-1.9,0-2.9c0-1,0.2-1.2,1.2-1.2c0.2,0,0.5,0,0.7,0
		c1,0.1,1.7,0,2.1-1.1c0.4-1.1,1.5-1.6,2.8-1.5c1.2,0.1,2.1,0.7,2.5,1.9c0.2,0.6,0.6,0.8,1.2,0.8c0.5,0,1.1,0,1.6,0c0.7,0,1,0.3,1,1
		c0,1.1,0,2.1,0,3.2c0,0.8-0.4,1.2-1.1,1.2C20.6,9.1,18.7,9.1,16.9,9.1z M17,5.7c0.8,0,1.5-0.7,1.5-1.5c0-0.8-0.7-1.5-1.4-1.5
		c-0.8,0-1.5,0.7-1.5,1.5C15.5,5,16.2,5.7,17,5.7z"/>
	<path class="st0" d="M17.2,16.1c2.7,0,5.4,0,8.1,0c0.7,0,1.4,0,1.4,0.6c0,0.6-0.7,0.7-1.4,0.7c-5.4,0-10.7,0-16.1,0
		c-0.7,0-1.3-0.1-1.3-0.6c0-0.6,0.7-0.6,1.4-0.6C11.8,16.1,14.5,16.1,17.2,16.1z"/>
	<path class="st0" d="M15.4,24c2.2,0,4.3,0,6.5,0c0.5,0,1.1,0,1.1,0.6c0,0.6-0.5,0.7-1.2,0.7c-4.3,0-8.6,0-12.9,0
		c-0.6,0-1.2,0-1.2-0.6C7.8,23.9,8.4,24,9,24C11.1,24,13.2,24,15.4,24z"/>
	<path class="st0" d="M17.2,33.1c-2.6,0-5.2,0-7.8,0c-0.7,0-1.6,0.1-1.6-0.6c0-0.7,0.8-0.6,1.6-0.6c5.2,0,10.5,0,15.7,0
		c0.7,0,1.6-0.1,1.6,0.6c0,0.7-0.9,0.6-1.6,0.6C22.4,33.1,19.8,33.1,17.2,33.1z"/>
</g>
</svg>

